<svg width="64" height="64" viewBox="0 0 64 64" fill="none" xmlns="http://www.w3.org/2000/svg">
<path d="M32 30.368C29.584 25.672 23.008 16.9174 16.8934 12.6027C11.0347 8.46936 8.80271 9.18136 7.33871 9.84802C5.64271 10.608 5.33337 13.2134 5.33337 14.7414C5.33337 16.2747 6.17337 27.2987 6.72004 29.1414C8.53337 35.2214 14.9707 37.2747 20.9067 36.616C12.2134 37.904 4.48804 41.0694 14.6134 52.344C25.7547 63.8774 29.8827 49.872 32 42.7707C34.1174 49.872 36.5547 63.3734 49.184 52.344C58.6667 42.7707 51.7894 37.904 43.096 36.616C49.0294 37.2747 55.4694 35.2214 57.28 29.1414C57.8267 27.3014 58.6667 16.2747 58.6667 14.744C58.6667 13.2107 58.3574 10.6107 56.6614 9.84269C55.1974 9.18136 52.9654 8.46402 47.1067 12.5974C40.992 16.92 34.4134 25.6747 32 30.368Z" fill="black"/>
</svg>
