<svg width="64" height="64" viewBox="0 0 64 64" fill="none" xmlns="http://www.w3.org/2000/svg">
<path d="M32 23.3334C29.7015 23.3334 27.4971 24.2465 25.8718 25.8718C24.2465 27.4971 23.3334 29.7015 23.3334 32C23.3334 34.2986 24.2465 36.503 25.8718 38.1283C27.4971 39.7536 29.7015 40.6667 32 40.6667C34.2986 40.6667 36.503 39.7536 38.1283 38.1283C39.7536 36.503 40.6667 34.2986 40.6667 32C40.6667 29.7015 39.7536 27.4971 38.1283 25.8718C36.503 24.2465 34.2986 23.3334 32 23.3334Z" fill="black"/>
<path fill-rule="evenodd" clip-rule="evenodd" d="M18.0533 8.21863C27.3227 7.19177 36.6772 7.19177 45.9466 8.21863C51.0106 8.78396 55.0933 12.7706 55.6879 17.8533C56.7865 27.2524 56.7865 36.7475 55.6879 46.1466C55.0933 51.2293 51.0106 55.216 45.9493 55.784C36.679 56.811 27.3236 56.811 18.0533 55.784C12.9893 55.216 8.90662 51.2293 8.31195 46.1493C7.21324 36.7493 7.21324 27.2533 8.31195 17.8533C8.90662 12.7706 12.9893 8.78396 18.0533 8.21863ZM45.3333 16C44.626 16 43.9478 16.2809 43.4477 16.781C42.9476 17.2811 42.6666 17.9594 42.6666 18.6666C42.6666 19.3739 42.9476 20.0521 43.4477 20.5522C43.9478 21.0523 44.626 21.3333 45.3333 21.3333C46.0405 21.3333 46.7188 21.0523 47.2189 20.5522C47.719 20.0521 47.9999 19.3739 47.9999 18.6666C47.9999 17.9594 47.719 17.2811 47.2189 16.781C46.7188 16.2809 46.0405 16 45.3333 16ZM19.3333 32C19.3333 28.6406 20.6678 25.4187 23.0433 23.0433C25.4187 20.6678 28.6405 19.3333 31.9999 19.3333C35.3594 19.3333 38.5812 20.6678 40.9566 23.0433C43.3321 25.4187 44.6666 28.6406 44.6666 32C44.6666 35.3594 43.3321 38.5812 40.9566 40.9566C38.5812 43.3321 35.3594 44.6666 31.9999 44.6666C28.6405 44.6666 25.4187 43.3321 23.0433 40.9566C20.6678 38.5812 19.3333 35.3594 19.3333 32Z" fill="black"/>
</svg>
