<?xml version="1.0" encoding="UTF-8"?>
<svg id="Layer_1" data-name="Layer 1" xmlns="http://www.w3.org/2000/svg" viewBox="0 0 903.83 999.17">
  <defs>
    <style>
      .cls-1 {
        fill: #40e8f4;
        stroke: #00bbbf;
        stroke-width: 8px;
      }

      .cls-1, .cls-2, .cls-3, .cls-4 {
        stroke-miterlimit: 10;
      }

      .cls-2 {
        fill: #9b9a9a;
        stroke: #000;
        stroke-width: 6px;
      }

      .cls-5, .cls-3 {
        fill: #00bbbf;
        font-family: Bauhaus93, 'Bauhaus 93';
        font-size: 151.32px;
      }

      .cls-6 {
        fill: #8b6249;
      }

      .cls-3 {
        stroke: #b8f7ff;
        stroke-width: 13px;
      }

      .cls-4 {
        stroke: #40e8f4;
        stroke-width: 11px;
      }

      .cls-4, .cls-7 {
        fill: #b8f7ff;
      }

      .cls-7 {
        stroke: #8b6249;
        stroke-width: 76px;
      }

      .cls-7, .cls-8 {
        stroke-linejoin: round;
      }

      .cls-8 {
        fill: none;
        stroke: #684836;
        stroke-width: 95px;
      }
    </style>
  </defs>
  <g>
    <rect class="cls-2" x="565.87" y="126.92" width="11.61" height="74.07" transform="translate(31.83 413.46) rotate(-40.81)"/>
    <path class="cls-2" d="M619.38,205.23l-16.35,12.26c-.94.71-2.29.45-2.91-.55l-14.37-23.17,14.55-10.91,19.29,19.35c.86.86.76,2.29-.22,3.02Z"/>
    <rect class="cls-2" x="584.05" y="45.79" width="16.5" height="119.7" transform="translate(434.65 -474.99) rotate(64.7)"/>
    <rect class="cls-2" x="582.01" y="-25.07" width="20.95" height="141.87" transform="translate(300.62 563.51) rotate(-65.01)"/>
    <rect class="cls-2" x="495.49" y="3.87" width="25.41" height="245.65" transform="translate(12.24 -41.65) rotate(4.75)"/>
    <rect class="cls-2" x="193.94" y="40.57" width="11.61" height="129" transform="translate(52.5 -65.98) rotate(21.53)"/>
    <rect class="cls-2" x="252.35" y="29.81" width="16.5" height="159.48" transform="translate(-21.82 121.89) rotate(-25.3)"/>
    <rect class="cls-2" x="309.87" y="15.76" width="20.95" height="176.56" transform="translate(34.66 -74.37) rotate(13.99)"/>
    <rect class="cls-2" x="372.15" y="3.87" width="25.41" height="245.65" transform="translate(-20.27 132.82) rotate(-19.09)"/>
    <path class="cls-2" d="M175.23,192.03l-18.45-8.79c-1.06-.51-1.46-1.82-.86-2.83l13.85-23.48,16.42,7.83-8.18,26.07c-.37,1.16-1.68,1.74-2.78,1.21Z"/>
    <path class="cls-8" d="M682.67,752.97l-472.07,24.85c-30.49,0-49.51-25.9-55.21-55.21l-63.49-380.97c0-30.49,24.72-55.21,55.21-55.21l596.3-13.8c30.49,0,55.21,24.72,55.21,55.21l-60.73,369.93c-9.38,34.28-24.72,55.21-55.21,55.21Z"/>
    <path class="cls-7" d="M682.67,752.97l-472.07,24.85c-30.49,0-49.04-24.72-55.21-55.21l-63.49-380.97c0-30.49,24.72-55.21,55.21-55.21l596.3-13.8c30.49,0,55.21,24.72,55.21,55.21l-60.73,369.93c-8.75,29.84-24.72,55.21-55.21,55.21Z"/>
    <rect class="cls-6" x="670.41" y="280.57" width="77.26" height="491.85" transform="translate(94.36 -107.62) rotate(9.3)"/>
    <path class="cls-4" d="M632.51,728.79c-131.91,25.69-270.37,36.34-408.89,21.99-21.1-2.61-33.68-14.18-39.95-34.76-39.05-114.91-59.78-239.12-63.11-360.64-1.43-20.63,14.08-36.36,34.76-39.95,158.23-29.69,331.22-36.21,519.57-18.63,21.34.92,38.52,14.13,39.95,34.76-6.03,131.01-22.67,249.16-47.57,357.29-3.6,21.46-14.57,35.58-34.76,39.95Z"/>
    <path class="cls-1" d="M272.3,476.52l-17.67,135.26-56.44-7.37,17.67-135.26-43.23-5.65,7.12-54.49,142.77,18.65-7.12,54.49-43.1-5.63Z"/>
    <path class="cls-1" d="M502.89,408.36l-50.02,213.04-114.12-186.47,65.05-10.53,26.84,56.16,9.56-62.05,62.69-10.15Z"/>
    <path class="cls-1" d="M554.81,482.67v-10.23c-9.35-.56-16.96-3.86-22.85-9.88-5.89-6.03-8.83-13.53-8.83-22.5,0-9.44,3.15-17.36,9.46-23.76,6.31-6.4,14.14-9.6,23.48-9.6s16.68,3.22,22.85,9.67,9.25,14.44,9.25,23.97-3.01,18.69-9.04,26.36c-6.03,7.67-14.14,12.99-24.33,15.98Z"/>
    <path class="cls-1" d="M684.94,474.35l-15.8,52.93c-7.08-2.11-12.33-2.24-15.76-.39-3.43,1.85-6.67,6.57-9.71,14.15-10.06,25.19-25.54,40.47-46.45,45.83-11.06,2.75-25.24,1.54-42.52-3.62l-6.99-2.09,15.88-53.2,2.28.68c8.06,2.41,14.32,2.44,18.77.11,4.45-2.33,8.2-7.62,11.25-15.88,4.81-13.49,8.96-22.73,12.45-27.74,3.49-5,8.88-9.4,16.15-13.18,12.71-6.64,27.8-7.36,45.27-2.14l15.18,4.53Z"/>
  </g>
  <text class="cls-3" transform="translate(6.5 954.84)"><tspan x="0" y="0">Retro Refresh</tspan></text>
  <text class="cls-5" transform="translate(6.5 954.84)"><tspan x="0" y="0">Retro Refresh</tspan></text>
</svg>